<svg xmlns="http://www.w3.org/2000/svg" viewBox="0 0 209.83 69.5"><defs><style>.cls-1{fill:#1d1d1b;}.cls-2{fill:#6d6568;}.cls-3{fill:#1d2234;}.cls-4,.cls-6{isolation:isolate;}.cls-4{font-size:36.64px;font-family:Barlow-Bold, Barlow;font-weight:700;}.cls-5{letter-spacing:-0.01em;}.cls-6{font-size:12px;font-family:Barlow-Medium, Barlow;font-weight:500;}.cls-7{fill:none;stroke:#1d1d1b;stroke-miterlimit:10;stroke-width:2px;}</style></defs><g id="Laag_2" data-name="Laag 2"><g id="Laag_1-2" data-name="Laag 1"><g id="Laag_2-2" data-name="Laag 2"><g id="Laag_1-2-2" data-name="Laag 1-2"><path class="cls-1" d="M68.46,13a.22.22,0,0,1-.2.2,7.49,7.49,0,0,1-.4-1.6.37.37,0,0,0-.1-.3h-.3c.1.5-.3.1-.4.2-.5.4-1,.1-1.4-.2a.66.66,0,0,0-.6-.1,4.42,4.42,0,0,1-2,.2v.4a.76.76,0,0,0,.1.4c.1-.4.1-.4.2-.4.3.2.8.2.9.7a8.17,8.17,0,0,0,1.2,2c.1.2.3.3.4.5s-.4.1-.4.4c.6.2,1.1-.2,1.6-.2s.2-.5.5-.5,0,.3.1.4c.2-.2.2-.2.4.1.2-.2,0-.6.2-.9a9.29,9.29,0,0,1,.4,1.3c.2.6.2,1.3.4,1.9v.1a.37.37,0,0,0,.1.3V18c.1.5-.1,1.1.1,1.6a2.2,2.2,0,0,1-.1.8c-.2.4.1.8.1,1.2,0,.2.2.4-.1.5a.1.1,0,0,0-.1-.1c-.1-.1,0-.4-.2-.3s-.1.3-.1.4c-.1.6-.1,1.2-.6,1.6a.86.86,0,0,0-.3.6c-.2-.3-.2-.8-.7-.5a4.42,4.42,0,0,1,.5,1.5,2.28,2.28,0,0,0,.3,1.1c.1.3.4.2.6.2s.1-.2.2-.3.1-.1.2-.1v.7c-.1,0-.1.1-.2.1s.1,0,0-.1l-.1-.1a.1.1,0,0,0-.1.1h.2c.1.1.1.1.2.1a.52.52,0,0,1-.2.4.63.63,0,0,0-.2.8c0,.2.3,0,.4.3a3.29,3.29,0,0,1,.4,1.7c-.4.2-.6-.2-.7-.4a1.43,1.43,0,0,0,.3,1.1c.1.1.2.4.1.4-.3.1-.3.4-.4.6s-.2.2-.3,0c-.1-.5-.4-.2-.6-.2s-.2.2-.2.4v.4a4.19,4.19,0,0,1-.4-1.5,13.13,13.13,0,0,1,.1-2.8,11.3,11.3,0,0,0,0-2.6c0-.3-.1-.3-.4-.2-.5.4-1,.7-1.5,1.1-.2.1-.1.4-.2.6a2.24,2.24,0,0,0,.1,2.1c.1.2.1.4.2.6v.7c-.2-.4-.4-.4-.6-.4,0-.2,0-.6-.2-.6s-.2.4-.2.5c-.1.5-.3.9-.4,1.4-.1,0-.1.1-.1.2h0c-.2.1-.2.3-.2.5v.1l-.1.1h0c-.1,0-.1.1-.1.2s-.1.2-.1.3l-.1.1V33l-.1.1h0a.37.37,0,0,0-.1.3h0a6.08,6.08,0,0,0-.9,1.6c-.2.4-.4.6-.8.3-.1-.1-.3,0-.4,0-.4.2-.9.2-1.2.6a.91.91,0,0,0-.3,1,3.4,3.4,0,0,0,.1,1c0,.3-.4.5-.3.8.3,0,.5-.4.7.1l-.3.3c-.2.2-.5.4-.7.6s-.2.2-.1.3.2,0,.3,0a3,3,0,0,1,1.3-.5c.2,0,.4,0,.5.2a1.48,1.48,0,0,1-.7.1,1.64,1.64,0,0,0-1.2.7c-.1.4.3.7.6,1a.1.1,0,0,1,.1.1c.2.3.8.5.7.8a2.62,2.62,0,0,0,.2,1.5c-.4-.2-.6-.4-.9-.4.1.2.3.2.4.3-.2.1-.2.1-.1.2a5.94,5.94,0,0,0-.7,2.6c-.3.3-.2.7-.1,1.1v.6c0-.1-.1-.2-.1-.4-.1-.5-.1-.5-.5-.1a.48.48,0,0,1-.6.1l-.1-.1c-.2-.2-.4-.5-.6-.7s.1-.4.1-.6c.1,0,.1-.1.1-.2v-.1c.3-.3.2-.6.1-.9-.2,0-.1.3-.3.3a5.08,5.08,0,0,1-.3-1.7,22.6,22.6,0,0,0-.1-2.6c-.1-.6.2-1.3,0-2-.3-1-.1-2.1-.5-3.1-.3-.7-.3-.8-1.1-.9s-.7-.1-.7-.9a13,13,0,0,0-.2-3.4,3,3,0,0,1,.2-1.3,4.33,4.33,0,0,0,.1-.5c0-.4-.1-.8-.7-.7a.66.66,0,0,1-.5-.4c-.1-.4-.3-.8-.4-1.3v-.4a1.47,1.47,0,0,0-.1-1.3.44.44,0,0,1,.1-.5h.1a.87.87,0,0,0,.6-.9,3,3,0,0,1,.5-1.5c.2-.3-.1-.6-.1-.9-.7,1.5-1.7,2.8-2.5,4.2-.2.3-.2.7-.6.9v.2a16.41,16.41,0,0,0,.2,2.3,4.44,4.44,0,0,1,.2,2.3l-.1.1h0a.37.37,0,0,1-.4-.4,5.27,5.27,0,0,0-.3-1.2,3.55,3.55,0,0,0-.4-.9c-.1-.1-.1-.2-.2-.1s-.2.2-.1.3.1.5.1.7.2.5-.1.7a2.75,2.75,0,0,1-1-1.6.75.75,0,0,1,.1-.8,11.73,11.73,0,0,1,.5-1.1c0-.1.1-.1.2-.2.3-.2.4-.8.9-.3.1.1.2,0,.3-.1s.3-.4,0-.5a1.94,1.94,0,0,1-.9-1.1l.1-.1c.1,0,.3.1.3-.1h0c.1,0,.1-.1.1-.2a29.11,29.11,0,0,1,1.6-5,10,10,0,0,0,.6-3c.1-1.3.2-2.6.2-3.8a8.51,8.51,0,0,1,.9-3.1c.1,0,.1,0,.1-.1h0c.5.2.6.2,1.2-.6l.1-.1a1.52,1.52,0,0,1,1.2.7c.1.1.1.2.3,0s.3-.1.2-.3-.2-.3-.3-.5-.3-.1,0-.3c.1,0,.1-.1,0-.2a1.18,1.18,0,0,1-.1-.8,1.48,1.48,0,0,0-.1-.7c-.1-.2,0-.6,0-.8s0-.4.5-.5c-.6-.2-.7-.3-.4-.7s.3-.5-.2-.6c-.1,0-.2,0-.2-.1.4-.2.5-.4.1-.6-.6-.3-.5-.7,0-1,.2,0,0,.3.2.3s0-.4.2-.5a.1.1,0,0,1,.1.1c.5.7.7.8,1.4.3h.3a.68.68,0,0,0,.9.6c.1,0,.3-.1.4.1s-.1.2-.2.3-.2.1-.1.2.2.1.2,0c.2-.2.6-.3.4-.7,0-.1,0-.2.1-.2s.1,0,.2.1c.4.3.4.5,0,.9-.3.2-.6.2-.8.5a.3.3,0,0,0,0,.4c.2-.1.4.2.5-.1s.3-.2.5,0c-.1-.2-.1-.3-.2-.5s.1-.3.2-.3a3.81,3.81,0,0,1,1,.3c.3.2-.2.4-.2.6s-.1.2-.1.4c-.2.3.1.7-.1,1,.3,0,.6.3.9.3.5,0,.6.2.8.6.1.2,0,.5.2.5s.1-.4.2-.6V6.7c0-.1-.2-.3.1-.3a.86.86,0,0,1,.6.3c0,.1-.2.2,0,.2s.3-.1.2-.3.1-.4.2-.3.5.1.7.4-.1.5.1.8.2.6-.1.9-.2.3.1.4.4.2.1.5,0,.5.3.5c.9.1,1.8-.2,2.7-.1.2,0,.3-.1.2-.3a1.64,1.64,0,0,1-.2-1c-.1-.9-.2-1.7-.3-2.6a9.36,9.36,0,0,1,.4,1.6,15.17,15.17,0,0,0,.3,2.1V10a2.89,2.89,0,0,0,0,1.6v.2a4.25,4.25,0,0,0,.2,1.1l.1.2Zm-5.4,2.4c0,.1,0,.1.1.1h0a.1.1,0,0,0-.1-.1,5.38,5.38,0,0,0-.9-1.2A1.78,1.78,0,0,0,63.06,15.4Zm4.7.9.2-.2c.1-.1.2-.3.1-.4h0c-.1-.1-.2,0-.3.1s-.4.3,0,.5c0,.4-.3.4-.6.4s-.3-.2-.4.1h-.2c.1,0,.2,0,.2-.1a.9.9,0,0,1,.5.1c.3.1.5-.1.8-.1a.19.19,0,0,0,.1-.3c0-.3-.3,0-.4-.1Zm-1.5,1h0c.1.3.4.3.6.3a.85.85,0,0,1,.7,0c-.2.1-.4.1-.5.2a5,5,0,0,0,1.3.3c.1-.2-.1-.3-.2-.4s-.3-.1-.3-.2c.1-.6-.3-.2-.4-.2A4.74,4.74,0,0,1,66.26,17.3Zm-9.1,1.4a7.54,7.54,0,0,0,1.3-.6c.1-.1.2-.2.1-.2-.2-.5-.2-1.1-.7-1.5a.67.67,0,0,0-1,0h0a1,1,0,0,0-.5,1c.1.3.2.7.3,1s.3.3.5.3Zm6.7-.9c-.5,0-.9.1-1.3.1-.2,0-.3.2-.1.4a2,2,0,0,0,1.2.6c.2,0,.5.2.3-.2-.1-.2.1-.2.2-.1a1.69,1.69,0,0,0,.5.2,4.42,4.42,0,0,0,2.5.6,3,3,0,0,1,1.6.1l.1-.1c-.3-.2-.5-.6-.9-.4-1,.5-1.8,0-2.7-.2.1-.2.2-.2.3-.1s.3.1.3-.1-.2-.1-.3-.2-.1,0-.2.1a.75.75,0,0,1-.9,0c-.4-.2-.7-.3-1.1-.5.2-.1.4,0,.5-.2Zm-10-2.5c.1,0,.2-.1.3-.2a10.54,10.54,0,0,0,.7-1.1c.5-.8.4-1.4-.6-1.6-.3-.1-.6,0-.4.4.1.1.1.2.1.4A2.24,2.24,0,0,0,53.86,15.3Zm8.2,6a6.44,6.44,0,0,0,2.5,1.5c1,.2,2,.7,3.1.4.1,0,.3,0,.3-.1s-.2-.2-.3-.2c-.6-.2-1.2,0-1.8-.2a5.46,5.46,0,0,1-1.8-.6C63.56,21.6,62.76,21.6,62.06,21.3Zm-3.8,24.5a21,21,0,0,1,.6-2.4v-.2a4.67,4.67,0,0,1-.5-1c0-.1-.1-.3-.3-.2s-.1.2,0,.3a7.72,7.72,0,0,1,.2,1.5v.3C57.86,44.6,58.06,45.2,58.26,45.8ZM68,27.9c-.1-.1.2-.4,0-.5s-.3.2-.4.4-.1.1-.2.2a1.24,1.24,0,0,0,.1,1.7l.1.1c.1.1.2.1.2,0,.1-.3.3-.7.2-1v-.9ZM61.76,18c.1-.2.2-.3.3-.5s0-.3.2-.2a5,5,0,0,0,1.2.2,3.4,3.4,0,0,0,1.4.2c-.8-.2-1.6-.4-2.5-.6-.2,0-.5,0-.5.1-.2.2-.3.1-.5,0,0,.4.5.5.4.8Zm-2.6,26.6a7.74,7.74,0,0,1-.7,1.6c-.1.2,0,.3.1.4s.2,0,.3-.2A2.34,2.34,0,0,0,59.16,44.6Zm8.3-14.2v-.3c0-.1,0-.3-.2-.3s-.2.2-.2.3.1.4.1.7c0,.1-.2.4.1.4s.3-.2.3-.4,0-.3-.1-.4ZM66,15.7c0,.2.2.2.3.3s.3.1.4,0,.2-.2.1-.3-.2-.1-.3-.1-.3-.1-.5.1Zm-1.7,9.2a.9.9,0,0,0,.1-.5c0-.1.1-.2,0-.3a.37.37,0,0,0-.3.1C63.66,24.5,64.06,24.7,64.26,24.9Zm3.5-14.7c-.1.3-.1.6-.3.8s-.1.2,0,.2h0c.1,0,.2,0,.2-.1V11C67.76,10.8,68,10.5,67.76,10.2Zm.5,18.5c-.1.5-.1.5.2.6,0-.2-.1-.3-.2-.6Zm-.6-13.2h0c-.1-.1-.2-.1-.2,0v.1h0c.2,0,.2-.1.2-.1ZM63,11c0,.1-.1.2,0,.2s.1-.2,0-.2Zm2.5,4.7h0a.31.31,0,0,0,.2.1v-.1ZM60.16,4.5Zm.3,1Zm6.7,10Z"/><path class="cls-2" d="M67.36,6.5c.1.9.2,1.7.3,2.6a1.8,1.8,0,0,0,.2,1c.1.1,0,.3-.2.3-.9-.1-1.8.2-2.7.1-.3,0-.5-.3-.3-.5.4-.3.1-.4-.1-.5s-.3-.3-.1-.4c.3-.3.4-.6.1-.9s.1-.5-.1-.8-.5-.2-.7-.4-.2.1-.2.3,0,.3-.2.3,0-.2,0-.2a.71.71,0,0,0-.6-.3c-.3,0-.1.2-.1.3v.1c-.1.2,0,.5-.2.6s-.2-.3-.2-.5c-.2-.3-.3-.6-.8-.6-.3,0-.6-.3-.9-.3.2-.3-.1-.7.1-1,.1-.1.1-.2.1-.4s.4-.4.2-.6-.7-.2-1-.3c-.1,0-.3.1-.2.3a1.69,1.69,0,0,0,.2.5c-.2-.1-.4-.2-.5,0s-.4,0-.5.1V4.9a1.37,1.37,0,0,1,.8-.5c.4-.3.5-.5,0-.9-.1,0-.1-.1-.2-.1s-.1.1-.1.2c.2.4-.2.5-.4.7s-.2.1-.2,0,0-.2.1-.2.3-.1.2-.3-.3-.1-.4-.1a.68.68,0,0,1-.9-.6h-.3c-.7.4-.9.4-1.4-.3l-.1-.1c-.2.1.1.4-.2.5s0-.3-.2-.3c-.5.4-.5.7,0,1s.3.5-.1.6c0,.1.1.1.2.1.5.1.5.1.2.6s-.2.5.4.7c-.4,0-.4.3-.5.5s-.1.6,0,.8a1.7,1.7,0,0,1,.1.7c0,.3-.1.6.1.8,0,.1.1.2,0,.2-.3.1-.1.2,0,.3a.85.85,0,0,1,.3.5c.1.2-.1.2-.2.3s-.2.1-.3,0a1.85,1.85,0,0,0-1.2-.7.52.52,0,0,1,.4-.2c.6-.1.6-.4.5-.9a11.7,11.7,0,0,0-.5-2,.66.66,0,0,1,.2-.7c.2-.2.2-.3,0-.5a2.27,2.27,0,0,1-.5-1.8,7.08,7.08,0,0,0,.1-1.4A2,2,0,0,1,56.76,0a11.27,11.27,0,0,1,1.8.3c.4.1.9,0,1.3.4.1.1.3.2.4.4s.2.5.5.5.1.3.2.4c.3.4.8.5.9,1.1a.88.88,0,0,0,.7.6,8.91,8.91,0,0,1,3.8,1.8C67.16,5.8,67.36,6.1,67.36,6.5Zm-.2.3c-.3-.2-.6-.4-.9-.2s-.8.3-1.2.1c-.1,0-.3,0-.2.2s.3.6.7.4C66.16,7.1,66.66,7,67.16,6.8Zm-6.7-2.5h0c-.1-.1-.1-.1-.1,0s0,.1.1,0Z"/><path class="cls-2" d="M69.06,18.5a10.62,10.62,0,0,1-.4-1.9c-.1-.4-.3-.8-.4-1.3-.3.3,0,.6-.2.9-.2-.3-.2-.3-.4-.1-.1-.1.1-.3-.1-.4s-.1.6-.5.5-1.1.4-1.6.2c.1-.3.5,0,.4-.4,0-.2-.3-.3-.4-.5a8.17,8.17,0,0,1-1.2-2c-.1-.5-.6-.5-.9-.7-.1,0-.1,0-.2.4,0-.2-.1-.3-.1-.4s-.1-.2,0-.4a4.42,4.42,0,0,0,2-.2.47.47,0,0,1,.6.1c.4.3.9.6,1.4.2.1-.1.5.3.4-.2h.3c.1,0,.1.2.1.3a9.36,9.36,0,0,0,.4,1.6c.1.3-.1.5.1.8.2-.3.1-.6.3-.8.3.2.3.4.3.7C69.06,16.1,69,17.3,69.06,18.5Zm-1.9-2.4c-.1-.3,0-.6-.1-.8C66.66,15.6,66.76,15.8,67.16,16.1Z"/><path class="cls-2" d="M63.66,50.6l-.8-.5a6.07,6.07,0,0,1,.7-1,.85.85,0,0,0,0-1.3l.4-.1a1.46,1.46,0,0,0-.9-.6c-.5-.2-.7-.1-.7.5,0,.4.4.7.2,1.2a2.16,2.16,0,0,0-.1,1.1c-.3-.3-.3-.8-.7-1.2.6-.4.4-1,.4-1.5-.3.1-.2.4-.4.5.3-1,.2-.8,1.2-.9a4.87,4.87,0,0,0,1.2-.1c-.1-.2-.4,0-.4-.3.1-.6-.4-.6-.8-.7-.2,0-.2-.1-.1-.2s.2-.1.2-.2c.4-.3.2-.7.1-1a11.69,11.69,0,0,1-.6-2c.3.1.3.3.3.5a12.66,12.66,0,0,0,.6,1.8,21.22,21.22,0,0,0,2.8,4.3,2.18,2.18,0,0,1,.5.8H66c-.2,0-.2.2-.3.3v.2h0c.2.2.3.2.2.7-.4,0-.7-.3-1.1-.2.3-.3.4-.8.7-1.1.1-.1,0-.1,0-.2-.2-.3-.6-.4-.6-.8-.3.2-.3.5-.6.7a.37.37,0,0,1,.1-.3c0-.1,0-.1-.1-.1h-.1a2.11,2.11,0,0,0-.5,1.3c.3-.1.2-.6.5-.7A2.11,2.11,0,0,1,63.66,50.6Z"/><path class="cls-2" d="M59.76,44c-.1-.1-.1-.1.1-.2-.1-.1-.3-.1-.4-.3a1.39,1.39,0,0,1,.9.4,2.62,2.62,0,0,1-.2-1.5c0-.3-.5-.5-.7-.8l-.1-.1c-.3-.3-.7-.6-.6-1s.7-.6,1.2-.7a1.48,1.48,0,0,1,.7-.1.35.35,0,0,1,.2.1c.1.1.1.3.2.1s-.1-.2-.1-.3l.1-.1a4.18,4.18,0,0,1,1.1,1.8c-.2,0-.2-.2-.3-.2a5.55,5.55,0,0,0-.6-.8.49.49,0,0,0-.7-.1c-.2.1-.1.4,0,.6l.1.1a2.24,2.24,0,0,0,.8,1.5c.2.2,0,.6.5.5a.14.14,0,0,1,0,.2c-.1.1-.2.2-.2.3s-.1.2-.1.4.2.1.3.1h.4c.1,0,.3-.1.2.2s0,.4-.2.4c-.4.1-.4.3-.2.6s.3.5.7.5c-.6.3-.9.2-1.1-.2a8.74,8.74,0,0,0-.8-1c-.1-.2-.3-.2-.5,0C60.36,43.9,60.06,43.9,59.76,44Z"/><path class="cls-2" d="M59.56,38.6c-.2-.5-.5-.1-.7-.1,0-.3.4-.5.3-.8s0-.7-.1-1,.1-.6.3-1a2.27,2.27,0,0,1,1.2-.6.3.3,0,0,1,.4,0c.4.3.6,0,.8-.3a6.47,6.47,0,0,1,.9-1.6,8.65,8.65,0,0,1-.7,1.7c-.2.4-.6.4-.9.5-.7.2-.9.5-.6,1.1a3.72,3.72,0,0,1,.5,2.3.75.75,0,0,0,.1.5l-.1.1c-.4-.2-.3-.6-.3-1a3,3,0,0,0-.2-1.3,1.63,1.63,0,0,0,0,.7c0,.2,0,.5-.2.5s-.2-.2-.4-.4h-.1l-.1.2c-.1-.1-.2-.1-.2.1l-.1.2C59.76,38.6,59.66,38.6,59.56,38.6Z"/><path class="cls-1" d="M60.56,44.1c.2-.2.4-.2.5,0,.3.4.7.6.8,1s.5.5,1.1.2l.2-.1a.22.22,0,0,1-.2.2c-.1.1-.1.2.1.2.4.1.9.1.8.7,0,.3.3.1.4.3a4.87,4.87,0,0,1-1.2.1c-1,0-.9-.1-1.2.9h0c-.1.1-.2.3-.4.2a10.55,10.55,0,0,0-.2-2.5.52.52,0,0,0-.2-.4A1.13,1.13,0,0,1,60.56,44.1Z"/><path class="cls-2" d="M49.86,31.5c.2-.2.1-.5.1-.7s-.1-.5-.1-.7a.37.37,0,0,1,.1-.3.35.35,0,0,1,.2.1,1.88,1.88,0,0,1,.4.9,5.27,5.27,0,0,1,.3,1.2.37.37,0,0,0,.4.4,7.77,7.77,0,0,0,.4,3,1.1,1.1,0,0,1,0,.8c0,.1,0,.3-.2.3s-.3-.1-.3-.2a2.35,2.35,0,0,1-.2-.8c-.2-.9-.2-1.8-.4-2.7A1.56,1.56,0,0,0,49.86,31.5Z"/><path class="cls-2" d="M68.76,26.2a.35.35,0,0,0-.2.1c0,.1.1.3-.2.3s-.5.1-.6-.2-.2-.7-.3-1.1a4.42,4.42,0,0,0-.5-1.5c.5-.2.5.2.7.5a.86.86,0,0,1,.3-.6c.5-.4.5-1,.6-1.6,0-.1-.1-.4.1-.4s.1.2.2.3a.1.1,0,0,0,.1.1c-.3-.1-.4.1-.4.3v1.2A11.4,11.4,0,0,1,68.76,26.2Zm-.4-.1c-.1.1-.1.1,0,.2h.1a.31.31,0,0,0-.1-.2Z"/><path class="cls-2" d="M67.26,32.3v-.4c0-.2,0-.4.2-.4s.6-.2.6.2c0,.2.2.1.3,0s.2-.5.4-.6,0-.3-.1-.4a2,2,0,0,1-.3-1.1c.2.3.3.6.7.4a2.46,2.46,0,0,1,.1,1.2c0,.2,0,.3.2.4v.2a4.81,4.81,0,0,1-.9,1.1c-.2.2-.4,0-.6-.1s-.3-.2-.4-.3l-.1-.2h-.1Z"/><path class="cls-2" d="M64.46,29.9a.51.51,0,0,1,.6.4v-.7a6.32,6.32,0,0,1,.7,3.6c0,.2,0,.4-.3.4s-.3-.2-.3-.3l-.6-2.4C64.66,30.6,64.46,30.2,64.46,29.9Z"/><path class="cls-1" d="M62.56,49.9c0-.4-.1-.8.1-1.1s-.2-.7-.2-1.2.2-.7.7-.5a1.8,1.8,0,0,1,.9.6l-.4.1a.85.85,0,0,1,0,1.3,3.59,3.59,0,0,0-.7,1C62.66,50.1,62.56,50.1,62.56,49.9Z"/><path class="cls-1" d="M63.66,50.6a2.11,2.11,0,0,0,.5-1.3h0c.1,0,.1-.1.1-.2h0c.3-.1.3-.5.6-.7,0,.4.4.5.6.8,0,.1.1.1,0,.2-.3.3-.4.8-.7,1.1S64.06,51,63.66,50.6Z"/><path class="cls-2" d="M49.86,25.7a1.94,1.94,0,0,0,.9,1.1c.3.1,0,.4,0,.5s-.2.2-.3.1c-.5-.5-.6.1-.9.3-.1,0-.1.1-.2.2a1.9,1.9,0,0,0,.1-1.3C49.36,26.4,49.66,26,49.86,25.7Z"/><path class="cls-2" d="M57.16,47.1c.2.2.3.5.6.7a.47.47,0,0,0,.6.1.1.1,0,0,0,.1-.1c.4-.4.4-.4.5.1,0,.1.1.2.1.4-.1.6-.5.8-1,1,0-.6.1-1.3-.8-1.4C57.26,47.7,57.16,47.4,57.16,47.1Z"/><path class="cls-1" d="M57.26,48c.9.1.8.8.8,1.4l-.1.1a.22.22,0,0,0-.2.2h0l-.1.1c-.2.2-.3.1-.4-.1a1.59,1.59,0,0,1,0-1.5V48Z"/><path class="cls-1" d="M66,50.8c0-.4,0-.5-.2-.7-.1,0-.1-.1,0-.1h0c.1-.1.1-.3.3-.3h.8c0,.1,0,.1.1.2a.64.64,0,0,1-.1.9C66.66,51,66.26,50.9,66,50.8Z"/><path class="cls-1" d="M69.46,31.6a8.52,8.52,0,0,0-.3-3.2,3.21,3.21,0,0,1-.1-1.4c.3,1.2.5,2.4.7,3.6a1.93,1.93,0,0,1-.3,1Z"/><path class="cls-1" d="M61.86,47.7c.2-.1.1-.4.4-.5,0,.6.2,1.1-.4,1.5l-.1-.3c0-.2.1-.4.1-.7Z"/><path class="cls-2" d="M55,9.6c-.6.8-.6.8-1.2.6Z"/><path class="cls-2" d="M57.16,45.7c.2,0,.1-.2.3-.3.1.3.2.6-.1.9A1.42,1.42,0,0,1,57.16,45.7Z"/><path class="cls-2" d="M62.76,42.1c-.8.1-.2-.6-.4-.7Z"/><path class="cls-2" d="M59.06,47.7a.91.91,0,0,1,.1-1.1A3.75,3.75,0,0,1,59.06,47.7Z"/><path class="cls-2" d="M69.26,19.7c-.2-.5,0-1.1-.1-1.6C69.46,18.6,69.26,19.1,69.26,19.7Z"/><path class="cls-2" d="M68.06,12.3a4.3,4.3,0,0,1,0-1.6A8.53,8.53,0,0,1,68.06,12.3Z"/><path class="cls-2" d="M61.86,47.7c0,.3-.2.5-.1.8l-.3-.6C61.66,48,61.76,47.7,61.86,47.7Z"/><path class="cls-2" d="M68.36,13.6a3.59,3.59,0,0,1-.2-1.1A2,2,0,0,1,68.36,13.6Z"/><path class="cls-2" d="M63.36,31.9c0-.2,0-.4.2-.5C63.46,31.6,63.46,31.8,63.36,31.9Z"/><path class="cls-2" d="M50.26,25.5c0,.2-.2.1-.3.1C50.06,25.4,50.16,25.5,50.26,25.5Z"/><path class="cls-2" d="M57.76,49.6a.22.22,0,0,1,.2-.2C57.86,49.5,57.86,49.6,57.76,49.6Z"/><path class="cls-2" d="M69.16,18.9a.37.37,0,0,1-.1-.3A.37.37,0,0,1,69.16,18.9Z"/><path class="cls-2" d="M68.46,14v-.3A.19.19,0,0,1,68.46,14Z"/><path class="cls-2" d="M68.66,26.9l.2-.1c.1,0,.1.1,0,.2h0C68.76,27,68.66,27,68.66,26.9Z"/><path class="cls-2" d="M62.76,33.2a.37.37,0,0,1,.1-.3C62.86,33,62.86,33.2,62.76,33.2Z"/><path class="cls-2" d="M63.46,31.5c0-.1,0-.2.1-.2S63.56,31.4,63.46,31.5Z"/><path class="cls-3" d="M69.36,31.9v-.2h0l.1.1C69.46,31.7,69.56,31.8,69.36,31.9Z"/><path class="cls-2" d="M67,49.9c-.1,0-.1-.1-.1-.2C67,49.8,67,49.8,67,49.9Z"/><path class="cls-2" d="M63.16,32.3c0-.1,0-.2.1-.2S63.26,32.3,63.16,32.3Z"/><path class="cls-3" d="M67.36,32.4l.1.2C67.36,32.6,67.36,32.5,67.36,32.4Z"/><path class="cls-2" d="M53.86,10.2a.1.1,0,0,1-.1.1C53.66,10.2,53.76,10.2,53.86,10.2Z"/><path class="cls-2" d="M50.36,25.2c0,.1,0,.2-.1.2S50.26,25.3,50.36,25.2Z"/><path class="cls-2" d="M57.36,46.3c0,.1,0,.2-.1.2S57.16,46.4,57.36,46.3Z"/><path class="cls-2" d="M57.26,48v.1C57.16,48.1,57.16,48,57.26,48Z"/><path class="cls-2" d="M62.86,32.9l.1-.1C63,32.9,63,32.9,62.86,32.9Z"/><path class="cls-2" d="M63,32.7l.1-.1A.1.1,0,0,1,63,32.7Z"/><path class="cls-3" d="M67.26,32.3Z"/><path class="cls-2" d="M63.26,32.1l.1-.1A.1.1,0,0,1,63.26,32.1Z"/><path class="cls-2" d="M51.26,32.4l.1-.1Z"/><path class="cls-2" d="M57.16,18.7c-.2,0-.3-.1-.3-.2-.1-.3-.2-.7-.3-1a1,1,0,0,1,.5-1,.67.67,0,0,1,1,0h0c.5.4.5,1,.7,1.5,0,.1,0,.2-.1.2A13.08,13.08,0,0,0,57.16,18.7Z"/><path class="cls-2" d="M63.86,17.8c-.2.2-.4.1-.5.2.4.2.7.3,1.1.5a1.39,1.39,0,0,0,.9,0c.1,0,.1-.1.2-.1s.3,0,.3.2-.2.1-.3.1a.37.37,0,0,0-.3.1c.9.2,1.7.7,2.7.2.4-.2.6.2.9.4a.1.1,0,0,1-.1.1,3.81,3.81,0,0,0-1.5-.1,5.42,5.42,0,0,1-2.5-.6c-.2-.1-.3-.2-.5-.2s-.3,0-.2.1c.1.5-.2.3-.3.2a2,2,0,0,1-1.2-.6c-.2-.3-.1-.4.1-.4A4.12,4.12,0,0,1,63.86,17.8Z"/><path class="cls-2" d="M53.86,16.3a3.75,3.75,0,0,1,0-2.1.6.6,0,0,0-.1-.4c-.2-.5.1-.5.4-.4,1,.2,1.1.8.6,1.6-.2.3-.3.8-.7,1.1A.22.22,0,0,1,53.86,16.3Z"/><path class="cls-2" d="M62.06,21.3a7.61,7.61,0,0,1,2.1.8,5.46,5.46,0,0,0,1.8.6c.6.2,1.2,0,1.8.2.1,0,.3,0,.3.2s-.2.1-.3.1c-1.1.3-2.1-.2-3.1-.4A7.4,7.4,0,0,1,62.06,21.3Z"/><path class="cls-2" d="M58.26,45.8a1.91,1.91,0,0,1,0-1.8.19.19,0,0,0,0-.3,7.72,7.72,0,0,1-.2-1.5c0-.1-.1-.3,0-.3s.2.1.3.2a1.91,1.91,0,0,0,.5,1c0,.1.1.1,0,.2C58.76,44.2,58.36,44.9,58.26,45.8Z"/><path class="cls-2" d="M68,27.9a2.2,2.2,0,0,0,.1.8c.2.4-.1.7-.2,1,0,.1-.1.1-.2,0a1.15,1.15,0,0,1-.3-1.6l.1-.1.2-.2c.1-.2.2-.4.4-.4S67.86,27.8,68,27.9Z"/><path class="cls-2" d="M61.76,19c.1-.4-.4-.5-.4-.8.2.1.3.3.5,0,.1-.1.4-.1.5-.1.8.2,1.6.4,2.5.6-.5.2-.9-.1-1.4-.2a5,5,0,0,1-1.2-.2c-.2-.1-.1.1-.2.2A2.19,2.19,0,0,1,61.76,19Z"/><path class="cls-2" d="M66.26,18.3a1.73,1.73,0,0,0,1-.1c.1,0,.5-.4.4.2a1.44,1.44,0,0,1,.3.2c.1.1.3.2.2.4a6.11,6.11,0,0,1-1.3-.3c.1-.1.3-.1.5-.2h-.7c-.1.2-.3.2-.4-.2Z"/><path class="cls-2" d="M59.16,44.6a2.67,2.67,0,0,1-.3,1.8c0,.1-.1.3-.3.2s-.2-.2-.1-.4A11.11,11.11,0,0,0,59.16,44.6Z"/><path class="cls-2" d="M59.26,39c.2-.1.4-.2.4.1s.3.1.4.3a3,3,0,0,0-1.3.5c-.1,0-.2.2-.3,0s0-.2.1-.3A4.35,4.35,0,0,0,59.26,39Z"/><path class="cls-2" d="M67.46,30.4v.3c0,.2,0,.4-.3.4s-.1-.3-.1-.4-.1-.4-.1-.7c0-.1,0-.3.2-.3s.2.2.2.3A.76.76,0,0,1,67.46,30.4Z"/><path class="cls-2" d="M66.76,17.8c.1-.3.3-.1.4-.1.3,0,.6,0,.6-.4h0c.2.1.4-.1.5.1s0,.3-.1.3c-.3,0-.5.2-.8.1Z"/><path class="cls-2" d="M66,16.7a.9.9,0,0,1,.5-.1c.1,0,.3,0,.3.1a.37.37,0,0,1-.1.3.3.3,0,0,1-.4,0C66.16,16.8,66,16.8,66,16.7Z"/><path class="cls-2" d="M63.06,16.4a2.73,2.73,0,0,1-.9-1.2,5.38,5.38,0,0,1,.9,1.2Z"/><path class="cls-2" d="M64.26,24.9c-.1-.2-.5-.4-.1-.7a.37.37,0,0,1,.3-.1c.1.1,0,.2,0,.3S64.26,24.7,64.26,24.9Z"/><path class="cls-2" d="M67.76,11.2c.2.4,0,.6,0,.9a.22.22,0,0,1-.2.2h-.1c-.1,0-.1-.2-.1-.2h0A2.26,2.26,0,0,0,67.76,11.2Z"/><path class="cls-2" d="M67.76,17.3c-.4-.1,0-.3,0-.5s.1-.3.3-.1a.3.3,0,0,1,0,.4h0l-.3.2Z"/><path class="cls-2" d="M68.26,28.7a1.42,1.42,0,0,1,.2.6C68.16,29.2,68.16,29.2,68.26,28.7Z"/><path class="cls-2" d="M67.66,16.5a.1.1,0,0,0-.1.1h-.1c.1-.1.1-.2.2-.1Z"/><path class="cls-2" d="M63,12c.1.1.1.2,0,.2A.14.14,0,0,1,63,12Z"/><path class="cls-2" d="M65.46,16.7h.2v.1l-.2-.1Z"/><path class="cls-2" d="M63.06,16.4c.1,0,.1,0,.1.1h0c-.1,0-.1,0-.1-.1Z"/><path class="cls-2" d="M68.56,26.9h-.1l.1-.1v.1Z"/><path class="cls-2" d="M66.76,17.8c0,.1-.1.1-.2.1h0l.2-.1Z"/><path class="cls-2" d="M60.16,5.5Z"/><path class="cls-2" d="M60.46,6.5Z"/><path class="cls-2" d="M67.16,16.5Z"/><path class="cls-1" d="M67.16,6.8a14.24,14.24,0,0,1-1.6.5.6.6,0,0,1-.7-.4c-.1-.2.1-.2.2-.2.4.2.8,0,1.2-.1S66.86,6.5,67.16,6.8Z"/><path class="cls-3" d="M60.46,4.3Z"/><path class="cls-3" d="M58,3.3Z"/><path class="cls-3" d="M67.16,16.1c-.4-.3-.5-.5-.1-.8C67.16,15.5,67.06,15.8,67.16,16.1Z"/><path class="cls-3" d="M64.16,49.3c-.3.1-.2.6-.5.7-.1-.3.2-1.2.5-1.3h.1a.1.1,0,0,1,.1.1.37.37,0,0,1-.1.3h0a.31.31,0,0,0-.1.2Z"/><path class="cls-3" d="M59.86,38.3h0l-.1.1h0C59.76,38.2,59.76,38.2,59.86,38.3Z"/><path class="cls-3" d="M59.76,38.4h-.1l.1-.2h0Z"/><path class="cls-3" d="M68.36,26.1c.1.1.1.1,0,.2h-.1C68.36,26.3,68.36,26.2,68.36,26.1Z"/><path class="cls-2" d="M64.16,49.3c0-.1,0-.2.1-.2S64.26,49.3,64.16,49.3Z"/><path class="cls-2" d="M59.76,38.4v-.1h.1C59.86,38.4,59.86,38.4,59.76,38.4Z"/><path d="M75.46,51.6c.5,0,.6-.5.7-.6-.3.2-.8.1-1.2.2l-.4.1a5.24,5.24,0,0,0,1-1.1c-.3.2-.5.3-.8.5.3-.3.5-.6.8-.9a2.87,2.87,0,0,0-1.3.8,9.88,9.88,0,0,1,.9-1.5,4.74,4.74,0,0,0-1,1c.1-.8.1-1.5.2-2.2-.1.3-.3.6-.4.9a8.26,8.26,0,0,0-.7,1.3,9.83,9.83,0,0,0,.5-2.2c-.2.5-.5,1.2-.7,1.8a11.33,11.33,0,0,0-.1-3.2c-.1,1-.3,2.4-.5,3.5a8.61,8.61,0,0,0-.3-2.8c0,.6-.1,1.5-.1,2.2h0c-.1.2-.1.3-.2.5a6.12,6.12,0,0,1-.7-1.7,12.29,12.29,0,0,0,.2,2.7c-.2-.8-.5-1.5-.6-2.2a17,17,0,0,0,.1,2.2c-.1.1-.2.3-.3.4h0a2.79,2.79,0,0,0,.1-1.6,3,3,0,0,1-.4,1,5.24,5.24,0,0,0,.1-2.5,18,18,0,0,1-.5,1.9.37.37,0,0,0-.1-.3,1.42,1.42,0,0,0-.2.6,5.64,5.64,0,0,1-.4-1.2,13.66,13.66,0,0,0,.2,1.9l-.3-.6c0,.1-.1.2-.1.3v-1l-.6,1.2a.37.37,0,0,0-.1-.3,3.26,3.26,0,0,0,.4-1.4l-.6.9a5,5,0,0,1,.4-1.3c-.1.2-.2.3-.3.5.1-.2.1-.4.2-.6-.4.6-.7,1.2-1.1,1.8a7.57,7.57,0,0,1,.1-1.5,6.94,6.94,0,0,0-.5,1.3,23.59,23.59,0,0,1,.4-3.1c-.2.4-.3.7-.5,1.1a10.93,10.93,0,0,0-.8,1.5,9.59,9.59,0,0,0,.6-2.6c-.2.6-.6,1.4-.9,2.1a11.33,11.33,0,0,0-.1-3.7,27.61,27.61,0,0,1-.6,4h0a7.78,7.78,0,0,0-.4-3.1c0,.6-.1,1.3-.1,2a9.14,9.14,0,0,0-.7-1.4,23.59,23.59,0,0,1,.4,3.1c-.2-.4-.4-.9-.6-1.3a7.08,7.08,0,0,1,.1,1.5l-1.2-1.8a12.66,12.66,0,0,1,.6,1.8c-.3-.4-.7-.8-1-1.2a2.39,2.39,0,0,0,.5,1.4c0,.1-.1.2-.1.3h0l-.6-1.2c.1.3,0,.6.1,1,0-.1-.1-.2-.1-.3-.1.2-.3.4-.4.6a11.08,11.08,0,0,0,.2-1.9c-.1.4-.3.8-.4,1.2l-.3-.6a.9.9,0,0,0-.1.5,7.84,7.84,0,0,1-.5-1.4,3.46,3.46,0,0,0,.2,2,3.51,3.51,0,0,1-.5-.8.91.91,0,0,0,0,1l-.3-.3a8.08,8.08,0,0,0,.1-1.6,13.17,13.17,0,0,1-.8,1.9h0v-.2a1.61,1.61,0,0,1,.4-.7.76.76,0,0,1-.4.2v-.1a5.5,5.5,0,0,0,.7-.9,3,3,0,0,1-.7.5v-.4c.3-.3.6-.5.9-.8a3.55,3.55,0,0,0-.9.4v0a.76.76,0,0,1-.4.2c.4-.6.9-1.1,1.3-1.6a14.62,14.62,0,0,0-1.9,1.6,15,15,0,0,1,.9-1.8,12,12,0,0,0-1.7,2.1,26.93,26.93,0,0,1,1.8-3.8,12.81,12.81,0,0,0-2.6,3.8c.4-1,.8-2.2,1.2-3.1a9.13,9.13,0,0,0-1.5,2.3,21.68,21.68,0,0,1,.8-3,7.57,7.57,0,0,0-.9,1.8c.2-1.1.4-2.2.6-3a11,11,0,0,0-1.1,2.9,18,18,0,0,0-.2-2.2,22.11,22.11,0,0,1-.5,3.3,26.45,26.45,0,0,1-.2-2.7,9.78,9.78,0,0,0-.3,2.6,12.86,12.86,0,0,0-.4-1.9,31.12,31.12,0,0,1,.1,3.2c-.1-.3-.3-.6-.4-.9a7.72,7.72,0,0,0-.2-1.5c0,.3-.1.7-.1,1-.1-.2-.3-.3-.4-.5l.3.9c0,.2-.1.3-.1.5a17.23,17.23,0,0,0-.7-2.1,12.25,12.25,0,0,1,.2,1.9,3.92,3.92,0,0,0-.8-1,8.33,8.33,0,0,1,.4,1.5,2.18,2.18,0,0,1-.5-.8,5.85,5.85,0,0,0,.2,1.3,1.76,1.76,0,0,0-.4-.5c0,.3-.1.6-.1.9a2,2,0,0,0-.4-.8,3.35,3.35,0,0,1,0,1c0-.1-.1-.2-.1-.3l-.3.6a11.48,11.48,0,0,0,.1-1.9l-.3,1.2a1.42,1.42,0,0,1-.2-.6c0,.2-.1.3-.1.5a7.37,7.37,0,0,1-.4-1.4,4.52,4.52,0,0,0,.1,2,3,3,0,0,1-.4-.8,1.7,1.7,0,0,0,0,1c-.1-.1-.1-.2-.2-.3a8.6,8.6,0,0,0,.1-1.6,11.5,11.5,0,0,1-.6,1.7,15,15,0,0,0,.2-2.2,6.12,6.12,0,0,1-.5,1.2c-.1-.3-.1-.5-.2-.8,0,.4-.2,1-.2,1.6,0-.1-.1-.1-.1-.2V49.3a2.18,2.18,0,0,1-.8.5,10.47,10.47,0,0,1,.8-1.1,3.6,3.6,0,0,0-1.2.8,9.13,9.13,0,0,1,.8-1.7,10.59,10.59,0,0,0-1,1.2c.1-.4.2-.8.3-1.3-.3.5-.6,1.1-.9,1.6.3-.9.5-1.8.8-2.5a25.57,25.57,0,0,0-1.1,2.4,12.82,12.82,0,0,0,.6-3.2c-.2.7-.5,1.6-.8,2.5a27.12,27.12,0,0,1,.4-3.3,15.87,15.87,0,0,0-.7,2,15.15,15.15,0,0,0-.2-3.1c0,.9-.2,2-.3,3.1a6.93,6.93,0,0,0-.3-2c0,1.1-.1,2.6-.2,3.8a13.86,13.86,0,0,0-.3-3c0,.9-.1,2.2-.2,3.3a13.27,13.27,0,0,0-.7-4.5c.1,1.3,0,3.2,0,4.6a8.45,8.45,0,0,0-.5-1.7,12.1,12.1,0,0,1,.1,1.9,3.58,3.58,0,0,1-.4-1.1,7.57,7.57,0,0,0,.1,1.5,2.19,2.19,0,0,0-.5-.3,1.45,1.45,0,0,1,.2.7c-.1.1-.2.2-.2.3a11,11,0,0,1-.3-1.6,1.88,1.88,0,0,0-.2.8,6.72,6.72,0,0,1-.6-1.2,8.2,8.2,0,0,0,.2,2.2c-.2-.7-.5-1.2-.6-1.7a8.6,8.6,0,0,0,.1,1.6c-.1.1-.1.2-.2.2h0a1.7,1.7,0,0,0,0-1,5.94,5.94,0,0,1-.4.8,3.38,3.38,0,0,0,.1-2,7.84,7.84,0,0,1-.5,1.4,4.33,4.33,0,0,0-.1-.5,1.42,1.42,0,0,0-.2.6,5.64,5.64,0,0,1-.4-1.2,13.66,13.66,0,0,0,.2,1.9l-.3-.6c0,.1-.1.2-.1.3v-1l-.6,1.2a.37.37,0,0,0-.1-.3,3.26,3.26,0,0,0,.4-1.4,8.34,8.34,0,0,1-.8,1.2c.2-.7.3-1.3.5-1.9a16.18,16.18,0,0,0-1,1.8,7.57,7.57,0,0,1,.1-1.5,6.94,6.94,0,0,0-.5,1.3,23.59,23.59,0,0,1,.4-3.1,18.61,18.61,0,0,0-1,2.5,19.34,19.34,0,0,0,.3-4.1c-.2,1.3-.6,2.8-.9,4.1a11.73,11.73,0,0,0-.5-2.7c.1,1,0,2.2,0,3.2a3.79,3.79,0,0,1-.6-1.3,10.87,10.87,0,0,0,.1,1.8,6,6,0,0,1-.8-.8,6.12,6.12,0,0,0,.5,1.2,2.88,2.88,0,0,0-1.3-.1c.6.2.9.4,1.4.6h41.4Zm-16.6-1.9c0,.2-.1.3-.1.5-.3.2-.6.3-.9.5a9.43,9.43,0,0,1,1-1Zm-11.1-.1c-.1.2-.1.4-.2.6a.1.1,0,0,0-.1-.1h0C47.66,49.9,47.66,49.7,47.76,49.6Z"/></g></g><text class="cls-4" transform="translate(0 51.83)"><tspan xml:space="preserve">OP    </tspan><tspan class="cls-5" x="73.94" y="0">S</tspan><tspan x="95.44" y="0">TRUUN</tspan></text><text class="cls-6" transform="translate(80.62 66.99)">MET JET</text><line class="cls-7" x1="12.96" y1="63.2" x2="76.36" y2="63.2"/><line class="cls-7" x1="130.56" y1="63.2" x2="193.96" y2="63.2"/></g></g></svg>